<svg xmlns="http://www.w3.org/2000/svg" width="28" height="28" viewBox="0 0 28 28">
  <g id="noun_Box_2395966" transform="translate(-86 -86)">
    <g id="그룹_336" data-name="그룹 336">
      <g id="그룹_335" data-name="그룹 335">
        <g id="그룹_334" data-name="그룹 334" transform="translate(86 86)">
          <path id="패스_275" data-name="패스 275" d="M109.059,114H90.941A4.947,4.947,0,0,1,86,109.059V92.471a.824.824,0,0,1,1.647,0v16.588a3.3,3.3,0,0,0,3.294,3.294h18.118a.824.824,0,0,1,0,1.647Zm3.08-1.386a.824.824,0,0,1-.615-1.371l.043-.05a.824.824,0,0,1,1.253,1.07l-.065.074A.822.822,0,0,1,112.139,112.614Zm1.037-3.944a.824.824,0,0,1-.824-.824V90.941a3.3,3.3,0,0,0-3.294-3.294h-17.8a.824.824,0,0,1,0-1.647h17.8A4.947,4.947,0,0,1,114,90.941v16.906A.824.824,0,0,1,113.176,108.671ZM87.609,89.344a.824.824,0,0,1-.665-1.308l.059-.08a.824.824,0,1,1,1.312,1L88.276,89A.822.822,0,0,1,87.609,89.344Z" transform="translate(-86 -86)" fill="#fff"/>
        </g>
      </g>
    </g>
  </g>
</svg>
