<svg xmlns="http://www.w3.org/2000/svg" width="26.841" height="21.438" viewBox="0 0 26.841 21.438">
  <g id="noun_Monitor_1446649" transform="translate(-15 -46)">
    <g id="그룹_327" data-name="그룹 327" transform="translate(15 46)">
      <path id="패스_234" data-name="패스 234" d="M16.506,46H40.424a1.4,1.4,0,0,1,1.417,1.417V62.034a1.4,1.4,0,0,1-1.417,1.417H31.388v2.658h2.746v1.329H22.707V66.109h2.746V63.451H16.506A1.476,1.476,0,0,1,15,62.034V47.417A1.476,1.476,0,0,1,16.506,46Zm23.918.974H16.506a.5.5,0,0,0-.532.443V62.034a.5.5,0,0,0,.532.443H40.424a.418.418,0,0,0,.443-.443V47.417A.418.418,0,0,0,40.424,46.974Z" transform="translate(-15 -46)" fill="#fff"/>
    </g>
    <g id="그룹_328" data-name="그룹 328" transform="translate(15 46)">
      <path id="패스_234-2" data-name="패스 234" d="M16.506,46H40.424a1.4,1.4,0,0,1,1.417,1.417V62.034a1.4,1.4,0,0,1-1.417,1.417H31.388v2.658h2.746v1.329H22.707V66.109h2.746V63.451H16.506A1.476,1.476,0,0,1,15,62.034V47.417A1.476,1.476,0,0,1,16.506,46Zm23.918.974H16.506a.5.5,0,0,0-.532.443V62.034a.5.5,0,0,0,.532.443H40.424a.418.418,0,0,0,.443-.443V47.417A.418.418,0,0,0,40.424,46.974Z" transform="translate(-15 -46)" fill="#fff"/>
    </g>
  </g>
</svg>
