<svg xmlns="http://www.w3.org/2000/svg" width="28" height="26.755" viewBox="0 0 28 26.755">
  <g id="noun_element_2821172" transform="translate(36.5 9.475)">
    <path id="패스_284" data-name="패스 284" d="M30.5,17.928a2.257,2.257,0,0,0-1.385-2.122l-1.975-.855,1.975-.855a2.341,2.341,0,0,0,0-4.274L17.885,4.812a3.412,3.412,0,0,0-2.741,0L3.885,9.793A2.328,2.328,0,0,0,2.5,11.945a2.257,2.257,0,0,0,1.385,2.122l1.975.855-1.975.855a2.364,2.364,0,0,0,0,4.3l1.975.855-1.975.855A2.317,2.317,0,0,0,2.5,23.911a2.257,2.257,0,0,0,1.385,2.122l11.229,4.952a3.4,3.4,0,0,0,2.771,0l11.229-4.952A2.317,2.317,0,0,0,30.5,23.911a2.257,2.257,0,0,0-1.385-2.122l-1.975-.855,1.975-.855A2.328,2.328,0,0,0,30.5,17.928ZM16.146,7.141h0a.9.9,0,0,1,.678,0l10.787,4.775L16.854,16.69a.9.9,0,0,1-.678,0L5.359,11.916Zm11.495,16.8L16.854,28.716a.9.9,0,0,1-.678,0L5.359,23.941,9.014,22.32l6.131,2.712a3.4,3.4,0,0,0,2.771,0l6.131-2.712ZM16.854,22.7a.9.9,0,0,1-.678,0L5.359,17.928l3.655-1.621,6.131,2.712a3.219,3.219,0,0,0,1.356.295,3.254,3.254,0,0,0,1.385-.295l6.131-2.712,3.625,1.621Z" transform="translate(-39 -14)" fill="#343434"/>
  </g>
</svg>
