<svg xmlns="http://www.w3.org/2000/svg" width="29.271" height="29.295" viewBox="0 0 29.271 29.295">
  <g id="noun_Files_192336" transform="translate(-5 -4.923)">
    <path id="패스_286" data-name="패스 286" d="M33.327,4.948l-3.935.716a1.025,1.025,0,0,0-.293-.553.7.7,0,0,0-.65-.163l-7.155,1.3L20.221,5.176a.811.811,0,0,0-.748-.228L5.65,8.2A.833.833,0,0,0,5,9.014v21.14a.863.863,0,0,0,.683.813l17.888,3.252h.13a.8.8,0,0,0,.52-.2.842.842,0,0,0,.293-.553l3.935.748h.13a.8.8,0,0,0,.52-.2.842.842,0,0,0,.293-.553l3.935.748h.13a.826.826,0,0,0,.813-.813V5.761a.8.8,0,0,0-.293-.618A.82.82,0,0,0,33.327,4.948ZM19.635,6.9l2.927,2.927H19.635Zm3.252,25.53L6.626,29.47V9.664L18.009,7v3.675a.805.805,0,0,0,.813.813h4.065Zm4.878,0-3.252-.585V9.827a.935.935,0,0,0-.228-.585L22.692,7.648l5.074-.911Zm4.878,0-3.252-.585V7.322l3.252-.585Z" fill="#343434"/>
  </g>
</svg>
