<svg xmlns="http://www.w3.org/2000/svg" width="28.443" height="28.443" viewBox="0 0 28.443 28.443">
  <g id="noun_Image_1560964" transform="translate(-2 -2)">
    <path id="패스_268" data-name="패스 268" d="M6.741,30.443H25.7A4.741,4.741,0,0,0,30.443,25.7V6.741A4.741,4.741,0,0,0,25.7,2H6.741A4.741,4.741,0,0,0,2,6.741V25.7A4.741,4.741,0,0,0,6.741,30.443ZM25.7,28.073H6.741A2.37,2.37,0,0,1,4.37,25.7V22.639L10.3,16.714l6.272,6.272a1.185,1.185,0,0,0,1.677,0l3.9-3.9,5.926,5.926V25.7A2.37,2.37,0,0,1,25.7,28.073ZM6.741,4.37H25.7a2.37,2.37,0,0,1,2.37,2.37V21.656l-5.087-5.087a1.185,1.185,0,0,0-1.677,0l-3.9,3.9L11.134,14.2a1.185,1.185,0,0,0-1.677,0L4.37,19.285V6.741a2.37,2.37,0,0,1,2.37-2.37Z" transform="translate(0)" fill="#fff"/>
    <path id="패스_269" data-name="패스 269" d="M46.148,26.3A4.148,4.148,0,1,0,42,22.148,4.148,4.148,0,0,0,46.148,26.3Zm0-5.926a1.778,1.778,0,1,1-1.778,1.778A1.778,1.778,0,0,1,46.148,20.37Z" transform="translate(-28.149 -11.259)" fill="#fff"/>
  </g>
</svg>
