<svg xmlns="http://www.w3.org/2000/svg" width="9.293" height="9.252" viewBox="0 0 9.293 9.252">
  <g id="noun_Pencil_629289" transform="translate(0 0)">
    <g id="그룹_337" data-name="그룹 337" transform="translate(0 0)">
      <rect id="사각형_1094" data-name="사각형 1094" width="2.631" height="0.628" transform="translate(7.891 3.232) rotate(-135)" fill="#343434"/>
      <rect id="사각형_1095" data-name="사각형 1095" width="2.631" height="6.546" transform="matrix(-0.707, -0.707, 0.707, -0.707, 2.939, 8.19)" fill="#343434"/>
      <path id="패스_287" data-name="패스 287" d="M25.542,2.628a.758.758,0,0,0,0-1.076L24.765.774a.758.758,0,0,0-1.076,0l-.389.389,1.883,1.883Z" transform="translate(-16.473 -0.55)" fill="#343434"/>
      <path id="패스_288" data-name="패스 288" d="M.472,25.242a.232.232,0,0,0,.06.239.228.228,0,0,0,.149.06h.09l2.242-.807L1.28,23Z" transform="translate(-0.461 -16.289)" fill="#343434"/>
    </g>
  </g>
</svg>
