<svg xmlns="http://www.w3.org/2000/svg" width="28" height="28" viewBox="0 0 28 28">
  <g id="noun_selection_3039291" transform="translate(92 94)">
    <g id="그룹_333" data-name="그룹 333" transform="translate(-92 -94)">
      <path id="패스_274" data-name="패스 274" d="M26.444,20.222A1.555,1.555,0,0,1,28,21.778v3.111A3.114,3.114,0,0,1,24.889,28H21.778a1.556,1.556,0,1,1,0-3.111h3.111V21.778A1.555,1.555,0,0,1,26.444,20.222Zm-24.889,0a1.555,1.555,0,0,1,1.556,1.556v3.111H6.222a1.556,1.556,0,1,1,0,3.111H3.111A3.114,3.114,0,0,1,0,24.889V21.778A1.555,1.555,0,0,1,1.556,20.222Zm14,4.667a1.556,1.556,0,0,1,0,3.111H12.444a1.556,1.556,0,0,1,0-3.111Zm-14-14a1.555,1.555,0,0,1,1.556,1.556v3.111a1.556,1.556,0,0,1-3.111,0V12.444A1.555,1.555,0,0,1,1.556,10.889Zm24.889,0A1.555,1.555,0,0,1,28,12.444v3.111a1.556,1.556,0,0,1-3.111,0V12.444A1.555,1.555,0,0,1,26.444,10.889ZM6.222,0a1.556,1.556,0,1,1,0,3.111H3.111V6.222A1.556,1.556,0,1,1,0,6.222V3.111A3.114,3.114,0,0,1,3.111,0ZM24.889,0A3.114,3.114,0,0,1,28,3.111V6.222a1.556,1.556,0,1,1-3.111,0V3.111H21.778a1.556,1.556,0,1,1,0-3.111ZM15.556,0a1.556,1.556,0,0,1,0,3.111H12.444a1.556,1.556,0,0,1,0-3.111Z" fill="#343434" fill-rule="evenodd"/>
    </g>
  </g>
</svg>
