<svg xmlns="http://www.w3.org/2000/svg" width="30" height="22.683" viewBox="0 0 30 22.683">
  <g id="noun_Video_1737181" transform="translate(-9 -19)">
    <g id="그룹_332" data-name="그룹 332" transform="translate(9 19)">
      <path id="패스_272" data-name="패스 272" d="M14.488,971.362A5.5,5.5,0,0,0,9,976.85v11.707a5.5,5.5,0,0,0,5.488,5.488H33.512A5.5,5.5,0,0,0,39,988.557V976.85a5.5,5.5,0,0,0-5.488-5.488H14.488Zm0,2.2H33.512A3.262,3.262,0,0,1,36.8,976.85v11.707a3.262,3.262,0,0,1-3.293,3.293H14.488a3.262,3.262,0,0,1-3.293-3.293V976.85A3.262,3.262,0,0,1,14.488,973.557Zm6.254,3.293a1.1,1.1,0,0,0-1.132,1.1v9.512a1.1,1.1,0,0,0,1.623.972l8.78-4.756a1.1,1.1,0,0,0,0-1.932l-8.78-4.756A1.1,1.1,0,0,0,20.742,976.85ZM21.8,979.8l5.373,2.9L21.8,985.619Z" transform="translate(-9 -971.362)" fill="#343434"/>
    </g>
  </g>
</svg>
